<?xml version="1.0" ?><svg viewBox="0 0 512 512" xmlns="http://www.w3.org/2000/svg"><title/><g id="Mother"><path d="M240.19,186.09a19.17,19.17,0,0,0,26.94,0l3.07-3.36a1.46,1.46,0,0,0,.38-1.16,1.5,1.5,0,0,0-.6-1.06l-7.39-5.42a6,6,0,0,0-7.14.06,3,3,0,0,1-3.56,0,6,6,0,0,0-7.12,0l-7.42,5.42a1.5,1.5,0,0,0-.23,2.22Zm6.35-8.58a3,3,0,0,1,3.54,0,6,6,0,0,0,7.2,0,3,3,0,0,1,3.54,0l6,4.43-1.94,2.12a16.18,16.18,0,0,1-22.52,0l-1.93-2.12Z"/><path d="M356.66,343.39V272a46.41,46.41,0,0,0-46.36-46.36H280.63V208.11h13.7A27.88,27.88,0,0,0,321.7,175l-1.79-9.3L309.35,107a56,56,0,0,0-111-2.43.36.36,0,0,0,0,.1L185.62,175A27.88,27.88,0,0,0,213,208.11h13.7v17.53H197A46.41,46.41,0,0,0,150.66,272v89.91a18.07,18.07,0,0,0,11.45,16.74,95.57,95.57,0,0,0-5.61,32.27v42.61A1.5,1.5,0,0,0,158,455H347.21a1.5,1.5,0,0,0,1.5-1.5V410.92A95.89,95.89,0,0,0,341,373.3,36.36,36.36,0,0,0,356.66,343.39ZM220.46,179.91c-8.45-19-12.37-30.59-13-48.41,16.12-11.49,25.24-27.85,30.33-41.34a47.59,47.59,0,0,0,12.43,24.92c10.7,11,27.35,16.74,49.51,17.16-.66,17.41-4.59,29-12.92,47.67-5.92,13.29-17.59,27.6-29.22,27.6h-8C238.05,207.51,226.38,193.2,220.46,179.91ZM213,205.11a24.88,24.88,0,0,1-24.42-29.6l12.63-70.19a1.06,1.06,0,0,0,0-.19,53,53,0,0,1,105.13,2.2s0,.07,0,.11L317,166.2l1.8,9.33a24.89,24.89,0,0,1-24.43,29.58h-13.7v-9.06a73.52,73.52,0,0,0,9-14.92c8.56-19.23,12.73-31.66,13.23-50.32a1.51,1.51,0,0,0-.42-1.09,1.47,1.47,0,0,0-1.07-.45c-22.1-.18-38.56-5.66-48.92-16.28-9.16-9.39-11.81-21.21-12.41-29.48a1.52,1.52,0,0,0-1.33-1.38,1.5,1.5,0,0,0-1.6,1c-4.43,14.07-13.56,33.53-32,46.33a1.53,1.53,0,0,0-.64,1.28c.5,18.67,4.66,31.11,13.23,50.35a73.52,73.52,0,0,0,9,14.92v9.06Zm16.7-5.52c.23.24.44.5.67.74,6.32,6.66,13,10.18,19.32,10.18h8c6.32,0,13-3.52,19.32-10.18.23-.24.45-.5.67-.74v26H229.69Zm-76,162.32V272a43.41,43.41,0,0,1,43.14-43.36l-17.31,37.52a64.34,64.34,0,0,0-3.24,45.41l-.26.13,1.29,2.71,1.37-.66c15.28-6.63,33.61-10.6,54.47-11.81a56.06,56.06,0,0,1,41.72,15.47l-1.38-.32-.33,1.46.22-1.49c-2.2-.48-4.43-.89-6.64-1.22l-.28,0c-1-.14-1.95-.27-2.94-.38l-.51-.06c-1.06-.11-2.13-.21-3.21-.29l-.36,0c-.93-.06-1.87-.11-2.81-.15l-.81,0c-2.27-.07-4.44-.08-7.15,0l-.57,0c-1.2.06-2.46.14-3.75.25l-.65.06c-1.3.12-2.55.26-3.74.41l-.45.07c-2.62.35-5.25.83-7.83,1.4l-.25.05c-1.24.28-2.52.6-3.82.95l-.27.07c-1.16.32-2.32.66-3.46,1l-1,.32-2.64.9-.84.3c-1.12.41-2.24.85-3.34,1.3l-.47.2c-1,.4-1.94.83-2.9,1.27l-.74.34c-1.05.49-2.09,1-3.12,1.52l-.08,0a96.17,96.17,0,0,0-45.62,50.43A15.06,15.06,0,0,1,153.66,361.91Zm192,90.12H159.5V410.92a93.37,93.37,0,0,1,50.59-82.86l.12-.06c1-.5,2-1,3-1.45l.76-.34c.91-.42,1.83-.82,2.75-1.21l.5-.21c1.06-.44,2.13-.85,3.21-1.25l.86-.31c.83-.29,1.66-.58,2.51-.85l1-.32c1.08-.34,2.16-.66,3.26-1l.08,0,.26-.07c1.26-.34,2.5-.65,3.69-.92l.25,0c2.5-.56,5-1,7.59-1.36l.43-.06c1.15-.15,2.37-.29,3.63-.4l.63-.06c1.25-.11,2.47-.19,3.63-.24l.55,0c2.64-.11,4.74-.1,6.93,0l.79,0c.91,0,1.81.08,2.72.15l.35,0c1,.08,2.08.17,3.11.28l.49.06c1,.11,1.91.23,2.86.37l.27,0c2.13.32,4.29.71,6.42,1.18l.33-1.46-.22,1.49c2.13.47,4.27,1,6.36,1.64h0a1.51,1.51,0,0,0,1.79-.81,1.49,1.49,0,0,0-.23-1.61A59.11,59.11,0,0,0,233,299c-1.31.07-2.6.16-3.89.26l-1.2.1-2.63.22-1.39.14-2.38.25-1.44.17-2.28.28-1.43.2-2.23.32-1.4.22c-.73.12-1.47.23-2.2.36l-1.36.24-2.18.4-1.3.26-2.19.45-1.23.28-2.19.5-1.17.29-2.2.55-1.11.3-2.18.6-1.07.32-2.15.65-1,.33c-.71.23-1.42.46-2.11.7l-1,.35-2,.73-1.07.4c-.64.24-1.28.48-1.9.73l-1.14.46-.83.33a61.37,61.37,0,0,1,3.21-42.93l17.9-38.77h107.1l17.9,38.77a61.75,61.75,0,0,1-5.41,61l-6.83,9.78a1.51,1.51,0,0,0,.25,2,93,93,0,0,1,32.59,70.75Zm-5.91-81.52a96.15,96.15,0,0,0-23.7-31.73l6.06-8.68a64.74,64.74,0,0,0,5.67-63.94l-17.31-37.52A43.41,43.41,0,0,1,353.66,272v71.39A33.36,33.36,0,0,1,339.8,370.51Z"/><path d="M253.81,366.11l-1.38,1.38-1.37-1.38a24.51,24.51,0,1,0-34.66,34.66l2.18,2.19a1.51,1.51,0,0,0,.22.28l32.54,32.54a1.49,1.49,0,0,0,.73.39,1.74,1.74,0,0,0,.39.05,1.49,1.49,0,0,0,1.06-.44l32.54-32.54a1.09,1.09,0,0,0,.21-.27l2.2-2.2a24.51,24.51,0,0,0-34.66-34.66Zm32.54,32.54-2.44,2.44a1.39,1.39,0,0,0-.21.27l-31.27,31.27-31.25-31.25a1.28,1.28,0,0,0-.23-.29l-2.43-2.44a21.5,21.5,0,1,1,30.41-30.41l2.44,2.43a1.5,1.5,0,0,0,2.12,0l2.44-2.43a21.51,21.51,0,0,1,30.42,30.41Z"/></g></svg>