<?xml version="1.0" ?><svg style="enable-background:new 0 0 48 48;" version="1.1" viewBox="0 0 48 48" xml:space="preserve" xmlns="http://www.w3.org/2000/svg" xmlns:xlink="http://www.w3.org/1999/xlink"><style type="text/css">
	.st0{display:none;}
	.st1{fill:none;stroke:#303030;stroke-width:0.7;stroke-linecap:round;stroke-linejoin:round;stroke-miterlimit:10;}
	.st2{fill:#303030;}
</style><g class="st0" id="Padding__x26__Artboard"/><g id="Icons"><g><line class="st1" x1="16.48186" x2="16.50631" y1="24.03164" y2="24.05609"/><path class="st1" d="M32.48301,22.58122l-7.76333,11.63006c-0.34316,0.51408-1.09871,0.51408-1.44187,0l-7.76333-11.63006    l0.00163-0.0043c-0.78238-1.39361-1.22246-2.99503-1.22246-4.70648c0-5.35438,4.33974-9.70635,9.70635-9.70635    c5.35439,0,9.70635,4.35197,9.70635,9.70635c0,1.71145-0.44009,3.31287-1.22247,4.70648L32.48301,22.58122z"/><path class="st1" d="M30.97119,15.14711c0.17787,0.62385,0.26063,1.28602,0.23215,1.96898"/><path class="st1" d="M25.22595,10.61856c2.09651,0.08741,3.91058,1.20312,4.9756,2.83991"/><ellipse class="st1" cx="24" cy="18.91938" rx="5.14617" ry="5.14617" transform="matrix(0.998 -0.06316 0.06316 0.998 -1.14698 1.55354)"/><ellipse class="st1" cx="24.32783" cy="38.97918" rx="2.97" ry="0.85673"/></g></g></svg>