<?xml version="1.0" ?><svg style="enable-background:new 0 0 48 48;" version="1.1" viewBox="0 0 48 48" xml:space="preserve" xmlns="http://www.w3.org/2000/svg" xmlns:xlink="http://www.w3.org/1999/xlink"><style type="text/css">
	.st0{display:none;}
	.st1{fill:none;stroke:#303030;stroke-width:0.7;stroke-linecap:round;stroke-linejoin:round;stroke-miterlimit:10;}
	.st2{fill:#303030;}
</style><g class="st0" id="Padding__x26__Artboard"/><g id="Icons"><g><path class="st1" d="M35.22158,26.12098h3.05859c0.58096,0,0.93979,0.63222,0.65785,1.13629l-3.71644,6.44183l-0.35028,0.60659    l-0.67494,1.17901c-0.29902,0.51262-1.02522,0.51262-1.30716,0l-0.58096-1.01668l-0.50407-0.87144l-3.66518-6.33931    c-0.29902-0.50407,0.06835-1.13629,0.64931-1.13629h3.01587"/><path class="st1" d="M19.59021,12.10061h10.39485c2.89881,0,5.23574,2.3497,5.23574,5.23574v8.74276"/><path class="st1" d="M21.51849,15.51022h8.46657c1.00884,0,1.81335,0.83006,1.81335,1.82612l0.00575,8.78464"/><line class="st1" x1="21.51849" x2="19.59021" y1="15.51022" y2="12.10061"/><path class="st1" d="M12.77842,21.84879H9.71983c-0.58096,0-0.93979-0.63222-0.65785-1.13629l3.71644-6.44183l0.35029-0.60659    l0.67494-1.17901c0.29902-0.51261,1.02522-0.51261,1.30716,0l0.58096,1.01668l0.50407,0.87144l3.66518,6.33931    c0.29902,0.50407-0.06835,1.13629-0.64931,1.13629h-3.01587"/><path class="st1" d="M12.77842,21.84879H9.71983c-0.58096,0-0.93979-0.63222-0.65785-1.13629l3.71644-6.44183l0.35029-0.60659    l0.67494-1.17901c0.29902-0.51261,1.02522-0.51261,1.30716,0l0.58096,1.01668l0.50407,0.87144l3.66518,6.33931    c0.29902,0.50407-0.06835,1.13629-0.64931,1.13629h-3.01587"/><path class="st1" d="M28.40979,35.89939H18.01494c-2.89881,0-5.23574-2.3497-5.23574-5.23574V21.8523"/><path class="st1" d="M26.48151,32.48978h-8.46657c-1.00884,0-1.81335-0.83006-1.81335-1.82612V21.8523"/><line class="st1" x1="26.48151" x2="28.40979" y1="32.45955" y2="35.86916"/></g></g></svg>